<?xml version="1.0" encoding="iso-8859-1"?>
<!-- Uploaded to: SVG Repo, www.svgrepo.com, Generator: SVG Repo Mixer Tools -->
<svg height="800px" width="800px" version="1.1" id="Layer_1"
     xmlns="http://www.w3.org/2000/svg"
     viewBox="0 0 511.999 511.999" xml:space="preserve">
<path style="fill:#CFDCE5;" d="M67.673,447.928v28.462c0,14.812,12.008,26.82,26.82,26.82h324.232
	c14.812,0,26.82-12.008,26.82-26.82V35.608c0-14.812-12.008-26.82-26.82-26.82H94.495c-14.812,0-26.82,12.008-26.82,26.82v381.854"
/>
    <circle style="fill:#FFFFFF;" cx="256.614" cy="307.773" r="144.337"/>
    <path style="fill:#415E72;" d="M298.947,307.769c0-25.359,9.982-48.372,26.206-65.378c-17.255-18.086-41.574-29.372-68.544-29.372
	c-52.329,0-94.751,42.422-94.751,94.752s42.421,94.752,94.751,94.752c26.97,0,51.289-11.288,68.544-29.372
	C308.929,356.141,298.947,333.128,298.947,307.769z"/>
    <circle style="fill:#FFFFFF;" cx="378.98" cy="59.368" r="22.848"/>
    <path d="M418.115,0H93.884c-19.635,0-35.61,15.973-35.61,35.608v381.854c0,4.853,3.935,8.788,8.788,8.788
	c4.853,0,8.788-3.935,8.788-8.788v-296.58h267.954c4.853,0,8.788-3.935,8.788-8.788c0-4.853-3.935-8.788-8.788-8.788H75.851V35.608
	c0-9.944,8.09-18.032,18.033-18.032h324.232c9.944,0,18.032,8.089,18.032,18.032v67.698H371.34c-4.853,0-8.788,3.935-8.788,8.788
	c0,4.853,3.935,8.788,8.788,8.788h64.809V476.39c0,9.944-8.089,18.032-18.032,18.032H93.884c-9.944,0-18.032-8.089-18.032-18.032
	v-28.462c0-4.853-3.935-8.788-8.788-8.788s-8.788,3.935-8.788,8.788v28.462c0,19.635,15.973,35.609,35.608,35.609h324.232
	c19.635,0,35.609-15.973,35.609-35.609V35.608C453.723,15.973,437.75,0,418.115,0z"/>
    <path d="M375.36,389.431c4.164,2.498,9.56,1.145,12.056-3.017c14.205-23.688,21.713-50.883,21.713-78.645
	c0-84.437-68.694-153.131-153.13-153.131s-153.13,68.694-153.13,153.131S171.563,460.899,256,460.899
	c40.463,0,78.624-15.636,107.449-44.026c3.458-3.405,3.5-8.97,0.095-12.428c-3.406-3.459-8.97-3.501-12.428-0.095
	c-25.517,25.132-59.296,38.973-95.115,38.973c-74.745,0-135.555-60.809-135.555-135.553s60.809-135.555,135.555-135.555
	s135.552,60.809,135.552,135.555c0,24.578-6.643,48.648-19.211,69.606C369.847,381.537,371.198,386.934,375.36,389.431z"/>
    <path d="M330.901,236.323c-19.745-20.697-46.346-32.094-74.902-32.094c-57.091,0-103.539,46.447-103.539,103.54
	c0,57.091,46.447,103.539,103.539,103.539c28.556,0,55.157-11.399,74.902-32.094c3.24-3.396,3.24-8.738,0-12.132
	c-15.332-16.071-23.777-37.134-23.777-59.312c0-22.178,8.445-43.241,23.777-59.312C334.141,245.061,334.142,239.719,330.901,236.323
	z M289.549,307.769c0,23.781,8.057,46.496,22.852,64.852c-15.636,13.669-35.382,21.112-56.401,21.112
	c-47.4,0-85.962-38.563-85.962-85.962s38.563-85.964,85.962-85.964c21.019,0,40.765,7.443,56.401,21.112
	C297.606,261.272,289.549,283.987,289.549,307.769z"/>
    <path d="M410.005,59.369c0-17.444-14.192-31.636-31.636-31.636c-17.444,0-31.636,14.192-31.636,31.636s14.192,31.636,31.636,31.636
	C395.813,91.006,410.005,76.813,410.005,59.369z M364.309,59.369c0-7.752,6.308-14.06,14.06-14.06c7.752,0,14.06,6.308,14.06,14.06
	s-6.308,14.06-14.06,14.06C370.617,73.429,364.309,67.122,364.309,59.369z"/>
    <path d="M144.614,36.52h-35.15c-4.853,0-8.788,3.935-8.788,8.788s3.935,8.788,8.788,8.788h35.15c4.853,0,8.788-3.935,8.788-8.788
	S149.469,36.52,144.614,36.52z"/>
    <path d="M144.614,68.156h-35.15c-4.853,0-8.788,3.935-8.788,8.788c0,4.853,3.935,8.788,8.788,8.788h35.15
	c4.853,0,8.788-3.935,8.788-8.788C153.402,72.091,149.469,68.156,144.614,68.156z"/>
    <path d="M209.061,36.52h-35.15c-4.853,0-8.788,3.935-8.788,8.788s3.935,8.788,8.788,8.788h35.15c4.853,0,8.788-3.935,8.788-8.788
	S213.915,36.52,209.061,36.52z"/>
    <path d="M209.061,68.156h-35.15c-4.853,0-8.788,3.935-8.788,8.788c0,4.853,3.935,8.788,8.788,8.788h35.15
	c4.853,0,8.788-3.935,8.788-8.788C217.849,72.091,213.915,68.156,209.061,68.156z"/>
</svg>
