<?xml version="1.0" encoding="iso-8859-1"?>
<!-- Uploaded to: SVG Repo, www.svgrepo.com, Generator: SVG Repo Mixer Tools -->
<svg height="800px" width="800px" version="1.1" id="Layer_1"
     xmlns="http://www.w3.org/2000/svg"
     viewBox="0 0 511.983 511.983" xml:space="preserve">
<path style="fill:#48CFAD;" d="M362.659,75.112h-42.67c0,35.28-28.701,63.998-63.997,63.998c-35.28,0-63.998-28.717-63.998-63.998
	h-42.67L0.002,160.437l42.67,117.332l63.998-21.335V501.76h298.646V256.434l63.997,21.335l42.67-117.332L362.659,75.112z"/>
    <path style="fill:#37BC9B;" d="M255.992,128.438c-29.405,0-53.326-23.921-53.326-53.326h-21.343
	c0,41.233,33.437,74.669,74.669,74.669s74.669-33.437,74.669-74.669h-21.343C309.318,104.517,285.397,128.438,255.992,128.438z"/>
    <path style="fill:#434A54;" d="M266.664,63.566c-174.9,0-255.381-20.812-258.725-21.702c-5.703-1.5-9.093-7.343-7.578-13.046
	c1.516-5.687,7.343-9.078,13.031-7.578l0,0c0.797,0.219,81.622,20.999,253.272,20.999c171.664,0,230.459-20.499,231.021-20.718
	c5.547-2,11.656,0.875,13.656,6.421c2,5.531-0.859,11.656-6.406,13.656C502.451,42.489,442.031,63.566,266.664,63.566z"/>
    <g>
	<path style="fill:#F4BE8E;" d="M351.988,92.44c-5.891,0-10.671-4.766-10.671-10.656V20.896c0-5.891,4.78-10.672,10.671-10.672
		s10.671,4.781,10.671,10.672v60.888C362.659,87.675,357.879,92.44,351.988,92.44z"/>
        <path style="fill:#F4BE8E;" d="M159.996,92.44c-5.891,0-10.672-4.766-10.672-10.656V20.896c0-5.891,4.781-10.672,10.672-10.672
		c5.89,0,10.671,4.781,10.671,10.672v60.888C170.667,87.675,165.886,92.44,159.996,92.44z"/>
</g>
</svg>
